<svg width="72" height="72" viewBox="0 0 72 72" fill="none" xmlns="http://www.w3.org/2000/svg">
<circle cx="36" cy="36" r="36" fill="#242424"/>
<g clip-path="url(#clip0)">
<path d="M36.5077 26.5664C31.255 26.5664 27.0182 30.7746 27.0182 35.9918C27.0182 41.209 31.255 45.4172 36.5077 45.4172C41.7604 45.4172 45.9972 41.209 45.9972 35.9918C45.9972 30.7746 41.7604 26.5664 36.5077 26.5664ZM36.5077 42.1195C33.1133 42.1195 30.3383 39.3715 30.3383 35.9918C30.3383 32.6121 33.105 29.8641 36.5077 29.8641C39.9104 29.8641 42.6771 32.6121 42.6771 35.9918C42.6771 39.3715 39.9021 42.1195 36.5077 42.1195ZM48.5987 26.1809C48.5987 27.4031 47.6077 28.3793 46.3854 28.3793C45.1548 28.3793 44.172 27.3949 44.172 26.1809C44.172 24.9668 45.163 23.9824 46.3854 23.9824C47.6077 23.9824 48.5987 24.9668 48.5987 26.1809ZM54.8838 28.4121C54.7434 25.4672 54.0662 22.8586 51.8941 20.7094C49.7302 18.5602 47.1039 17.8875 44.1389 17.7399C41.0831 17.5676 31.924 17.5676 28.8682 17.7399C25.9115 17.8793 23.2851 18.552 21.113 20.7012C18.9409 22.8504 18.272 25.459 18.1233 28.4039C17.9499 31.4391 17.9499 40.5363 18.1233 43.5715C18.2637 46.5164 18.9409 49.125 21.113 51.2742C23.2851 53.4235 25.9032 54.0961 28.8682 54.2438C31.924 54.416 41.0831 54.416 44.1389 54.2438C47.1039 54.1043 49.7302 53.4317 51.8941 51.2742C54.0579 49.125 54.7351 46.5164 54.8838 43.5715C55.0572 40.5363 55.0572 31.4473 54.8838 28.4121ZM50.936 46.8281C50.2918 48.436 49.0447 49.6746 47.4177 50.3227C44.9813 51.2824 39.2001 51.061 36.5077 51.061C33.8153 51.061 28.0258 51.2742 25.5976 50.3227C23.9789 49.6828 22.7318 48.4442 22.0793 46.8281C21.113 44.4082 21.336 38.666 21.336 35.9918C21.336 33.3176 21.1213 27.5672 22.0793 25.1555C22.7235 23.5477 23.9706 22.309 25.5976 21.6609C28.034 20.7012 33.8153 20.9227 36.5077 20.9227C39.2001 20.9227 44.9896 20.7094 47.4177 21.6609C49.0365 22.3008 50.2836 23.5395 50.936 25.1555C51.9023 27.5754 51.6793 33.3176 51.6793 35.9918C51.6793 38.666 51.9023 44.4164 50.936 46.8281Z" fill="white"/>
</g>
<defs>
<clipPath id="clip0">
<rect width="37" height="42" fill="white" transform="translate(18 15)"/>
</clipPath>
</defs>
</svg>
