<svg width="72" height="72" viewBox="0 0 72 72" fill="none" xmlns="http://www.w3.org/2000/svg">
<circle cx="36" cy="36" r="36" fill="#242424"/>
<g clip-path="url(#clip0)">
<path d="M50.3846 28.3617C50.4083 28.7401 50.4083 29.1185 50.4083 29.4968C50.4083 41.0367 42.7095 54.3335 28.6385 54.3335C24.3034 54.3335 20.2764 52.901 16.8889 50.4148C17.5048 50.4958 18.097 50.5228 18.7366 50.5228C22.3135 50.5228 25.6063 49.1446 28.2357 46.7933C24.8719 46.7122 22.053 44.1988 21.0817 40.7395C21.5556 40.8205 22.0293 40.8746 22.5268 40.8746C23.2137 40.8746 23.9008 40.7665 24.5403 40.5774C21.0344 39.7665 18.4049 36.2532 18.4049 32.0102V31.9021C19.4235 32.5508 20.608 32.9561 21.8634 33.0101C19.8025 31.4426 18.4523 28.7671 18.4523 25.7402C18.4523 24.1187 18.8312 22.6323 19.4946 21.335C23.2611 26.6321 28.9227 30.0913 35.2712 30.4697C35.1528 29.8211 35.0817 29.1455 35.0817 28.4699C35.0817 23.6592 38.4929 19.7405 42.7331 19.7405C44.9361 19.7405 46.926 20.7945 48.3236 22.4972C50.0528 22.1188 51.711 21.3891 53.1798 20.3892C52.6112 22.4161 51.4031 24.1188 49.816 25.1997C51.3558 25.0106 52.8482 24.5241 54.2221 23.8485C53.1799 25.5781 51.877 27.1185 50.3846 28.3617Z" fill="white"/>
</g>
<defs>
<clipPath id="clip0">
<rect width="37.3333" height="42.5926" fill="white" transform="translate(16.8889 15.7407)"/>
</clipPath>
</defs>
</svg>
